<svg width="20.000000" height="20.000000" viewBox="0 0 20 20" fill="none" xmlns="http://www.w3.org/2000/svg" xmlns:xlink="http://www.w3.org/1999/xlink">
	<defs>
		<clipPath id="clip2_204">
			<rect id="User" rx="0.000000" width="19.000000" height="19.000000" transform="translate(0.500000 0.500000)" fill="white" fill-opacity="0"/>
		</clipPath>
	</defs>
	<g clip-path="url(#clip2_204)">
		<path id="Vector (Stroke)" d="M14.8 14.75C15.07 15.91 15.16 17.18 15.16 18L16.12 18C16.12 17.72 16.11 17.41 16.09 17.06C16.04 16.29 15.93 15.38 15.73 14.51C15.58 13.88 15.37 13.26 15.1 12.74C14.82 12.22 14.46 11.75 13.96 11.48C13.55 11.27 13.27 11.11 13.08 11L13.08 10.52C13.16 10.44 13.24 10.36 13.3 10.28C13.46 10.09 13.61 9.85 13.74 9.58C14 9.03 14.22 8.31 14.22 7.54C14.22 5.61 12.52 3 9.56 3C6.6 3 4.9 5.61 4.9 7.54C4.9 8.31 5.11 9.03 5.38 9.58C5.51 9.85 5.66 10.09 5.81 10.28C5.88 10.36 5.95 10.44 6.04 10.52L6.04 11C5.84 11.11 5.56 11.27 5.16 11.48C4.66 11.75 4.29 12.22 4.02 12.74C3.74 13.26 3.54 13.88 3.39 14.51C3.18 15.38 3.08 16.29 3.03 17.06C3 17.41 3 17.72 3 18L3.95 18C3.95 17.18 4.04 15.91 4.32 14.75C4.45 14.17 4.63 13.64 4.85 13.22C5.08 12.79 5.33 12.51 5.59 12.37C6.3 11.99 6.78 11.68 6.96 11.57C6.97 11.56 6.98 11.55 6.99 11.54L6.99 9.86L6.67 9.76L6.66 9.76C6.65 9.75 6.61 9.72 6.54 9.64C6.45 9.52 6.33 9.35 6.23 9.13C6.02 8.69 5.85 8.12 5.85 7.54C5.85 6.09 7.19 3.99 9.56 3.99C11.92 3.99 13.26 6.09 13.26 7.54C13.26 8.12 13.1 8.69 12.89 9.13C12.78 9.35 12.67 9.52 12.57 9.64C12.51 9.72 12.47 9.75 12.45 9.76L12.45 9.76L12.12 9.86L12.12 11.32L12.13 11.56C12.13 11.56 12.77 11.97 13.52 12.37C13.79 12.51 14.04 12.79 14.26 13.22C14.48 13.64 14.66 14.17 14.8 14.75Z" fill="#000000" fill-opacity="1.000000" fill-rule="evenodd"/>
		<path id="Vector (Stroke)" d="" fill="#FFFFFF" fill-opacity="1.000000" fill-rule="evenodd"/>
	</g>
</svg>